<?xml version="1.0" encoding="utf-8"?>
<!-- Generator: Adobe Illustrator 26.5.1, SVG Export Plug-In . SVG Version: 6.00 Build 0)  -->
<svg version="1.1" id="Layer_1" xmlns="http://www.w3.org/2000/svg" xmlns:xlink="http://www.w3.org/1999/xlink" x="0px" y="0px"
	 viewBox="0 0 1366 768" style="enable-background:new 0 0 1366 768;" xml:space="preserve">
<style type="text/css">
	.st0{fill:#FFFFFF;}
</style>
<g>
	<path class="st0" d="M61,562l25.9,112.1l5.6,31.4l5.8-30.8l18.8-95.9c-0.1,0-0.3,0-0.4,0C94.3,578.8,75.8,573.2,61,562z"/>
	<path class="st0" d="M88.3,162.6c9,7.6,19.8,11.4,32.4,11.4c4.7,0,9.3-0.6,13.6-1.7c2.4-0.6,5.5-1.7,9.2-3.3l-19.9-19l21.3-22.2
		l19.9,19c3.1-6.4,5.3-12,6.6-16.9c2-7.2,2.9-15.7,2.9-25.3c0-22.1-4.5-39.2-13.6-51.3c-9.1-12.1-22.3-18.1-39.7-18.1
		c-16.3,0-29.3,5.8-39.1,17.4c-9.7,11.6-14.6,28.9-14.6,52C67.5,131.5,74.4,150.9,88.3,162.6z"/>
	<path class="st0" d="M74.4,198.2v68.2h77.1v-61.6c-8.6,2.7-18.9,4.1-30.8,4.1C103.2,208.8,87.8,205.3,74.4,198.2z"/>
	<path class="st0" d="M367.8,508.7l-8.6,1.6c-8,1.4-13.8,3.2-17.3,5.2c-5.9,3.5-8.8,8.9-8.8,16.2c0,6.5,1.8,11.2,5.5,14
		c3.6,2.9,7.9,4.4,13.1,4.4c8.2,0,15.8-2.4,22.7-7.2c6.9-4.8,10.5-13.6,10.8-26.4v-14.2c-2.4,1.5-4.8,2.7-7.3,3.7
		C375.5,507.1,372.1,507.9,367.8,508.7z"/>
	<path class="st0" d="M480.7,718.5c5.5,8.2,14,12.3,25.3,12.3c9.8,0,17.4-4,22.9-11.9c5.4-7.9,8.2-18.4,8.2-31.3
		c0-10.3-1.3-18.9-4-25.7c-5.1-12.8-14.4-19.3-28.1-19.3c-13.8,0-23.3,6.3-28.5,18.9c-2.7,6.7-4,15.3-4,26
		C472.4,699.9,475.2,710.3,480.7,718.5z"/>
	<path class="st0" d="M342.1,640.1c-8.8,0-15.7,2.8-20.5,8.3c-4.9,5.5-7.9,13-9.2,22.5h59.3c-0.6-10.1-3.7-17.7-9.2-22.9
		C357,642.7,350.2,640.1,342.1,640.1z"/>
	<path class="st0" d="M306.6,277.9c-5.5-5.2-12.3-7.8-20.4-7.8c-8.8,0-15.7,2.8-20.5,8.3c-4.9,5.5-7.9,13-9.2,22.5h59.3
		C315.1,290.8,312.1,283.1,306.6,277.9z"/>
	<path class="st0" d="M74.4,300.3v80.9c11.7-5.8,25-8.8,39.9-8.8c14,0,26.4,1.9,37.2,5.8v-77.9H74.4z"/>
	<path class="st0" d="M489.2,92.9c-5.5-5.2-12.3-7.8-20.4-7.8c-8.8,0-15.7,2.8-20.5,8.3c-4.9,5.5-7.9,13-9.2,22.5h59.3
		C497.8,105.8,494.7,98.1,489.2,92.9z"/>
	<path class="st0" d="M981.6,640.1c-8.8,0-15.7,2.8-20.5,8.3c-4.9,5.5-7.9,13-9.2,22.5h59.3c-0.6-10.1-3.7-17.7-9.2-22.9
		C996.6,642.7,989.8,640.1,981.6,640.1z"/>
	<path class="st0" d="M6.4,0v768h1366V0H6.4z M898.7,57.8h36.8v21.3c4.9-7.5,9.5-12.9,13.9-16.2c7.8-5.9,17.8-8.8,29.8-8.8
		c15.1,0,27.4,3.9,37,11.8c9.6,7.9,14.4,21,14.4,39.3v98.2h-39.1v-88.7c0-7.7-1-13.6-3.1-17.7c-3.7-7.5-10.9-11.2-21.4-11.2
		c-12.9,0-21.8,5.5-26.6,16.5c-2.5,5.8-3.7,13.2-3.7,22.2v78.9h-38V57.8z M822.8,5h38.7v35.2h-38.7V5z M822.8,57.5h38.7v145.8h-38.7
		V57.5z M564,57.8h36.8v21.3c4.9-7.5,9.5-12.9,13.9-16.2c7.8-5.9,17.8-8.8,29.8-8.8c15.1,0,27.4,3.9,37,11.8
		c9.6,7.9,14.4,21,14.4,39.3v98.2h-39.1v-88.7c0-7.7-1-13.6-3.1-17.7c-3.7-7.5-10.9-11.2-21.4-11.2c-12.9,0-21.8,5.5-26.6,16.5
		c-2.5,5.8-3.7,13.2-3.7,22.2v78.9h-38V57.8z M419,73.9c12.8-13.5,29.4-20.2,49.8-20.2c12.1,0,23.1,2.3,32.8,6.8
		c9.7,4.5,17.7,11.7,24.1,21.5c5.7,8.7,9.4,18.7,11.1,30.1c1,6.7,1.4,16.3,1.2,28.9h-99.8c0.5,14.6,5.1,24.9,13.8,30.8
		c5.3,3.7,11.6,5.5,19,5.5c7.8,0,14.2-2.2,19.1-6.7c2.7-2.4,5-5.8,7.1-10h38.9c-1,8.7-5.5,17.4-13.5,26.4
		c-12.5,14.2-30,21.3-52.4,21.3c-18.6,0-34.9-6-49.1-17.9c-14.2-12-21.3-31.4-21.3-58.3C399.8,106.7,406.2,87.3,419,73.9z
		 M381.3,242.8h36.8v21.3c4.9-7.5,9.5-12.9,13.9-16.2c7.8-5.9,17.8-8.8,29.8-8.8c15.1,0,27.4,3.9,37,11.8c9.6,7.9,14.4,21,14.4,39.3
		v98.2h-39.1v-88.7c0-7.7-1-13.6-3.1-17.7c-3.7-7.5-10.9-11.2-21.4-11.2c-12.9,0-21.8,5.5-26.6,16.5c-2.5,5.8-3.7,13.2-3.7,22.2
		v78.9h-38V242.8z M242.9,57.5h39.1v87.9c0,8.3,1,14.5,2.9,18.7c3.5,7.4,10.3,11.1,20.5,11.1c13,0,21.9-5.3,26.8-15.8
		c2.5-5.7,3.7-13.2,3.7-22.6V57.5h38.7v145.8h-37.1v-20.6c-0.4,0.4-1.2,1.8-2.7,4c-1.4,2.2-3.1,4.2-5.1,5.9c-6,5.4-11.8,9-17.3,11
		c-5.6,2-12.1,2.9-19.6,2.9c-21.6,0-36.1-7.8-43.6-23.3c-4.2-8.6-6.3-21.2-6.3-37.9V57.5z M267.6,573.4h-3.4l-52.1,185h-39.3
		L148.9,643l-7-38.1l-7,38.1l-23.8,115.3H72.9L17,561.2h42.8c-3.6-2.9-7-6.1-10.2-9.6c-16.2-18.3-24.3-43.3-24.3-75.2
		c0-34.4,9.2-61,27.7-79.6c3.1-3.1,6.3-5.9,9.7-8.4H33.6V191.2h29.8c-2.2-1.7-4.3-3.4-6.4-5.3c-20.3-18.5-30.5-45.6-30.5-81.3
		c0-36,10.4-63.3,31.3-81.7C74.9,7.7,96,0.1,121.4,0.1c25.5,0,46.9,8,64.2,23.9c20,18.5,30,44.3,30,77.5c0,17.6-2.1,32.3-6.4,44.2
		c-3.5,11.3-8.6,20.7-15.4,28.2l22.7,21.3L195,217.7l-2.5-2.4v173.1h-21.6c6.2,4.6,11.7,10.1,16.3,16.7c8.5,12.2,13,24.5,13.6,36.8
		h-41.2c-2.7-9.5-6.1-16.6-10.3-21.4c-7.5-8.6-18.6-12.8-33.3-12.8c-15,0-26.8,6-35.5,18.1c-8.7,12.1-13,29.2-13,51.3
		c0,22.1,4.6,38.7,13.7,49.7c9.1,11,20.8,16.5,34.9,16.5c14.4,0,25.5-4.7,33-14.2c4.2-5.1,7.7-12.7,10.4-22.9h40.8
		c-3.6,21.5-12.7,39-27.3,52.4c-2.6,2.4-5.4,4.6-8.3,6.5l22.6,108.9l6,31.4l6-30.2l26.4-114.1h3.7v-185h10.1
		c-0.4-0.3-0.8-0.6-1.1-0.9c-14.2-12-21.3-31.4-21.3-58.3c0-25.2,6.4-44.6,19.2-58.1c12.8-13.5,29.4-20.2,49.8-20.2
		c12.1,0,23.1,2.3,32.8,6.8c9.7,4.5,17.7,11.7,24.1,21.5c5.7,8.7,9.4,18.7,11.1,30.1c1,6.7,1.4,16.3,1.2,28.9h-99.8
		c0.5,14.6,5.1,24.9,13.8,30.8c5.3,3.7,11.6,5.5,19,5.5c7.8,0,14.2-2.2,19.1-6.7c2.7-2.4,5-5.8,7.1-10h38.9
		c-1,8.7-5.5,17.4-13.5,26.4c-12.5,14.2-30,21.3-52.4,21.3c-7,0-13.6-0.8-19.9-2.5v170.5V573.4z M411.3,696h-99.8
		c0.5,14.6,5.1,24.9,13.8,30.8c5.3,3.7,11.6,5.5,19,5.5c7.8,0,14.2-2.2,19.1-6.7c2.7-2.4,5-5.8,7.1-10h38.9
		c-1,8.7-5.5,17.4-13.5,26.4c-12.5,14.2-30,21.3-52.4,21.3c-18.6,0-34.9-6-49.1-17.9c-14.2-12-21.3-31.4-21.3-58.3
		c0-25.2,6.4-44.6,19.2-58.1c12.8-13.5,29.4-20.2,49.8-20.2c12.1,0,23.1,2.3,32.8,6.8c9.7,4.5,17.7,11.7,24.1,21.5
		c5.7,8.7,9.4,18.7,11.1,30.1C411.1,673.8,411.5,683.4,411.3,696z M431.5,573.4H390c-1.2-2.9-2-5.7-2.4-8.3
		c-0.4-2.6-0.8-5.5-1.1-8.8c-5.3,5.7-11.3,10.6-18.2,14.6c-8.2,4.7-17.5,7.1-27.8,7.1c-13.2,0-24.1-3.8-32.7-11.3
		c-8.6-7.5-12.9-18.2-12.9-32c0-17.9,6.9-30.9,20.7-38.9c7.6-4.4,18.7-7.5,33.4-9.4l13-1.6c7-0.9,12.1-2,15.1-3.3
		c5.4-2.3,8.2-5.9,8.2-10.8c0-6-2.1-10.1-6.2-12.4c-4.1-2.3-10.2-3.4-18.3-3.4c-9,0-15.4,2.2-19.1,6.7c-2.7,3.3-4.5,7.8-5.4,13.4
		h-36.8c0.8-12.8,4.4-23.2,10.7-31.4c10.1-12.8,27.4-19.3,51.9-19.3c16,0,30.1,3.2,42.5,9.5c12.4,6.3,18.6,18.3,18.6,35.9v66.9
		c0,4.6,0.1,10.3,0.3,16.9c0.3,5,1,8.4,2.3,10.2c1.2,1.8,3.1,3.3,5.6,4.4V573.4z M489.6,616c6.9-4.5,15.6-6.7,26.2-6.7
		c19.2,0,34.2,6.9,45,20.7c10.8,13.8,16.3,31.7,16.3,53.5c0,22.7-5.4,41.4-16.1,56.3c-10.7,14.9-25.6,22.3-44.8,22.3
		c-12,0-21.7-2.4-29-7.2c-4.4-2.9-9.1-7.8-14.2-15v18.3h-37.3V561.4h26.5c-9.3-9.3-13.9-20.8-13.9-34.6h38.7
		c0.8,6.8,2.5,11.6,5.2,14.4c4.7,5.1,13.5,7.6,26.2,7.6c7.5,0,13.4-1.1,17.9-3.3c4.4-2.2,6.6-5.6,6.6-10c0-4.3-1.8-7.5-5.4-9.8
		c-3.6-2.2-16.8-6.1-39.7-11.5c-16.5-4.1-28.1-9.2-34.9-15.4c-6.8-6.1-10.2-14.8-10.2-26.2c0-13.5,5.3-25,15.9-34.7
		c10.6-9.7,25.4-14.5,44.6-14.5c18.2,0,33,3.6,44.6,10.8c11.4,7.3,18,19.9,19.7,37.7h-38.1c-0.5-4.9-1.9-8.8-4.1-11.6
		c-4.2-5.2-11.3-7.8-21.4-7.8c-8.3,0-14.2,1.3-17.7,3.9c-3.5,2.6-5.3,5.6-5.3,9.1c0,4.4,1.9,7.5,5.6,9.5c3.7,2.1,17,5.6,39.7,10.6
		c15.2,3.6,26.5,9,34.1,16.2c7.5,7.3,11.2,16.5,11.2,27.4c0,14.4-5.4,26.2-16.1,35.4c-10.7,9.1-27.4,13.7-49.8,13.7
		c-17.4,0-31.3-2.8-41.7-8.3v61.5C478.5,624.8,483.8,619.6,489.6,616z M586.4,318.7v69.7H548V242.5h36.4v25.4
		c5.9-9.7,11-16.4,15.4-19.9c7.1-6,16.4-9,27.8-9c0.7,0,1.3,0,1.8,0.1c0.5,0,1.6,0.1,3.3,0.2v39.1c-2.4-0.3-4.5-0.4-6.4-0.5
		c-1.9-0.1-3.4-0.1-4.5-0.1c-15.3,0-25.6,5-30.9,15C587.9,298.3,586.4,307,586.4,318.7z M712.4,749.6c-10.8,9.1-27.4,13.7-49.8,13.7
		c-22.9,0-39.8-4.8-50.8-14.5c-10.9-9.7-16.4-22-16.4-37h38.7c0.8,6.8,2.5,11.6,5.2,14.4c4.7,5.1,13.5,7.6,26.2,7.6
		c7.5,0,13.4-1.1,17.9-3.3c4.4-2.2,6.6-5.6,6.6-10c0-4.3-1.8-7.5-5.4-9.8c-3.6-2.2-16.8-6.1-39.7-11.5c-16.5-4.1-28.1-9.2-34.9-15.4
		c-6.8-6.1-10.2-14.8-10.2-26.2c0-13.5,5.3-25,15.9-34.7c10.6-9.7,25.4-14.5,44.6-14.5c18.2,0,33,3.6,44.6,10.8
		c11.4,7.3,18,19.9,19.7,37.7h-38.1c-0.5-4.9-1.9-8.8-4.1-11.6c-4.2-5.2-11.3-7.8-21.4-7.8c-8.3,0-14.2,1.3-17.7,3.9
		c-3.5,2.6-5.3,5.6-5.3,9.1c0,4.4,1.9,7.5,5.6,9.5c3.7,2.1,17,5.6,39.7,10.6c15.2,3.6,26.5,9,34.1,16.2c7.5,7.3,11.2,16.5,11.2,27.4
		C728.5,728.7,723.1,740.5,712.4,749.6z M729.7,471.9h-38.1c-0.5-4.9-1.9-8.8-4.1-11.6c-4.2-5.2-11.3-7.8-21.4-7.8
		c-8.3,0-14.2,1.3-17.7,3.9c-3.5,2.6-5.3,5.6-5.3,9.1c0,4.4,1.9,7.5,5.6,9.5c3.7,2.1,17,5.6,39.7,10.6c15.2,3.6,26.5,9,34.1,16.2
		c7.5,7.3,11.2,16.5,11.2,27.4c0,14.4-5.4,26.2-16.1,35.4c-10.7,9.1-27.4,13.7-49.8,13.7c-22.9,0-39.8-4.8-50.8-14.5
		c-10.9-9.7-16.4-22-16.4-37h38.7c0.8,6.8,2.5,11.6,5.2,14.4c4.7,5.1,13.5,7.6,26.2,7.6c7.5,0,13.4-1.1,17.9-3.3
		c4.4-2.2,6.6-5.6,6.6-10c0-4.3-1.8-7.5-5.4-9.8c-3.6-2.2-16.8-6.1-39.7-11.5c-16.5-4.1-28.1-9.2-34.9-15.4
		c-6.8-6.1-10.2-14.8-10.2-26.2c0-13.5,5.3-25,15.9-34.7c9.7-8.9,23.1-13.7,40.1-14.4v-7.2l4.8,0.3c3.7,0.2,7.3,0,10.7-0.4
		c3.4-0.4,6.2-1.5,8.6-3.1c2.2-1.5,4.3-4.7,6.2-9.5c1.9-4.8,2.7-7.8,2.3-8.8l-53.5-152.3h42.4l31.8,107.6l30.1-107.6H785l-50,143.4
		c-9.1,26.2-16.5,43-22,50.3C722.6,443.8,728.2,455.7,729.7,471.9z M795.9,758.4h-38.7V612.5h38.7V758.4z M795.9,595.1h-38.7V560
		h38.7V595.1z M797.8,86h-23.7v77.1c0,6,0.8,9.7,2.3,11.2c1.5,1.5,6.2,2.2,13.9,2.2c1.2,0,2.4,0,3.7-0.1c1.3,0,2.6-0.1,3.8-0.2v28.5
		l-18.1,0.7c-18,0.6-30.3-2.5-36.9-9.4c-4.3-4.4-6.4-11.1-6.4-20.2V86h-20.3V58.9h20.3V18.2h37.7v40.7h23.7V86z M899.6,641h-23.7
		v77.1c0,6,0.8,9.7,2.3,11.2c1.5,1.5,6.2,2.2,13.9,2.2c1.2,0,2.4,0,3.7-0.1c1.3,0,2.6-0.1,3.8-0.2v28.5l-18.1,0.7
		c-18,0.6-30.3-2.5-36.9-9.4c-4.3-4.4-6.4-11.1-6.4-20.2V641h-20.3v-27.2h20.3v-40.7h37.7v40.7h23.7V641z M1050.8,696H951
		c0.5,14.6,5.1,24.9,13.8,30.8c5.3,3.7,11.6,5.5,19,5.5c7.8,0,14.2-2.2,19.1-6.7c2.7-2.4,5-5.8,7.1-10h38.9
		c-1,8.7-5.5,17.4-13.5,26.4c-12.5,14.2-30,21.3-52.4,21.3c-18.6,0-34.9-6-49.1-17.9c-14.2-12-21.3-31.4-21.3-58.3
		c0-25.2,6.4-44.6,19.2-58.1c12.8-13.5,29.4-20.2,49.8-20.2c12.1,0,23.1,2.3,32.8,6.8c9.7,4.5,17.7,11.7,24.1,21.5
		c5.7,8.7,9.4,18.7,11.1,30.1C1050.6,673.8,1051,683.4,1050.8,696z"/>
	<path class="st0" d="M74.4,191.2h-11c3.5,2.6,7.2,5,11,7V191.2z"/>
	<path class="st0" d="M151.5,191.2v13.6c0.3-0.1,0.6-0.2,0.9-0.3c5.3-1.8,11.5-4.9,18.7-9.2l21.3,20.1v-24.1H151.5z"/>
	<path class="st0" d="M74.4,381.2c-4.1,2-8,4.4-11.7,7.2h11.7V381.2z"/>
	<path class="st0" d="M151.5,388.4h19.3c-5.7-4.2-12.2-7.6-19.3-10.1V388.4z"/>
	<path class="st0" d="M267.6,376.2h-28c8.6,7,17.9,11.8,28,14.5V376.2z"/>
	<path class="st0" d="M665.5,423.4c-1.5,0-3.1,0-4.5,0.1v23.3c4.1,0.3,7.2,0.4,9.2,0.5c2.1,0,4.8,0.1,8.2,0.1
		c16.9,0,28.1-3.3,33.7-10c0.3-0.3,0.6-0.7,0.9-1.1c-0.9-0.7-1.9-1.4-2.9-2.1C698.5,427,683.7,423.4,665.5,423.4z"/>
	<path class="st0" d="M60.8,561.2h-0.9c0.4,0.3,0.7,0.5,1.1,0.8L60.8,561.2z"/>
	<path class="st0" d="M120.4,561.2l-3.5,17.7c18.7-0.1,34.6-4.6,47.8-13.6l-0.8-4H120.4z"/>
	<polygon class="st0" points="229.5,573.4 264.2,573.4 267.6,561.2 229.5,561.2 	"/>
	<path class="st0" d="M464.6,563.8c2.7,2.4,5.7,4.4,9,6.2v-8.6h-11.5C462.9,562.2,463.7,563,464.6,563.8z"/>
</g>
</svg>
